<?xml version="1.0" encoding="UTF-8" standalone="no"?>
<!DOCTYPE svg PUBLIC "-//W3C//DTD SVG 1.1//EN" "http://www.w3.org/Graphics/SVG/1.1/DTD/svg11.dtd">
<!-- Created with Vectornator (http://vectornator.io/) -->
<svg height="100%" stroke-miterlimit="10" style="fill-rule:nonzero;clip-rule:evenodd;stroke-linecap:round;stroke-linejoin:round;" version="1.1" viewBox="0 0 576 432" width="100%" xml:space="preserve" xmlns="http://www.w3.org/2000/svg" xmlns:vectornator="http://vectornator.io" xmlns:xlink="http://www.w3.org/1999/xlink">
<defs/>
<clipPath id="ArtboardFrame">
<rect height="432" width="576" x="0" y="0"/>
</clipPath>
<g clip-path="url(#ArtboardFrame)" id="Layer-1" vectornator:layerName="Layer 1" visibility="hidden">
<path d="M192.211-0.194363L192.211 431.272" fill="none" opacity="1" stroke="#5e5e5e" stroke-linecap="butt" stroke-linejoin="round" stroke-width="0.993643" vectornator:layerName="Line 1"/>
<path d="M385.356 0.621811L385.356 431.971" fill="none" opacity="1" stroke="#5e5e5e" stroke-linecap="butt" stroke-linejoin="round" stroke-width="0.993643" vectornator:layerName="Line 2"/>
</g>
<g id="Layer-4" vectornator:layerName="Layer 4">
<path d="M387.36 126.72L469.062 191.444L436.759 191.758L436.759 382.049L568.821 382.049L568.243 428.701L387.36 428.701L387.36 126.72Z" fill="#6b7e6b" fill-rule="nonzero" opacity="1" stroke="#170000" stroke-linecap="butt" stroke-linejoin="round" stroke-opacity="0" stroke-width="0.993643" vectornator:layerName="Rectangle 1"/>
<path d="M188.637 46.8L7.20009 191.866C7.14185 191.916 35.3678 191.866 35.3678 191.866L35.9733 428.74L189.299 428.74C189.299 428.74 188.579 370.082 188.472 343.929C188.431 333.907 184.688 325.282 173.487 312.263C162.286 299.243 145.268 288.95 145.268 288.95C145.268 288.95 171.963 270.248 182.799 246.763C190.586 229.888 189.299 196.45 189.299 196.45L188.637 46.8ZM143.647 150.722C143.647 150.722 142.369 197.738 139.018 222.513C136.21 243.271 134.379 251.954 119.049 261.013C110.588 266.013 78.9204 264.482 78.9204 264.482L78.9204 207.676C78.9461 205.688 80.25 202.999 81.7311 201.672L143.647 150.722ZM98.768 322.7C109.425 322.637 121.843 324.506 128.862 332.294C142.9 347.871 135.362 387.075 135.362 387.075L82.5533 387.075C80.7043 387.075 78.9204 385.576 78.9204 383.728L78.9204 324.763C78.9204 324.763 88.1111 322.764 98.768 322.7Z" fill="#58888f" fill-rule="nonzero" opacity="1" stroke="#170000" stroke-linecap="butt" stroke-linejoin="round" stroke-opacity="0" stroke-width="0.993643" vectornator:layerName="Curve 1"/>
<path d="M195.44 40.9201L237.57 3.41632L381.041 122.303L380.531 190.613L344.22 190.613C344.22 190.613 330.378 167.48 312.961 146.24C297.751 127.691 272.995 100.593 263.472 100.368C242.632 99.8745 245.809 146.076 246.218 150.706C246.668 155.791 245.304 290.791 246.218 352.59C246.486 370.646 260.234 387.059 290.099 387.57C344.958 388.508 344.731 340.173 344.731 340.173L381.041 340.256L381.041 428.602L195.44 428.602L195.44 40.9201Z" fill="#eebf5b" fill-rule="nonzero" opacity="1" stroke="#170000" stroke-linecap="butt" stroke-linejoin="round" stroke-opacity="0" stroke-width="0.993643" vectornator:layerName="Rectangle 1"/>
</g>
<g id="Layer-5" vectornator:layerName="Layer 5">
<g opacity="1" vectornator:layerName="Group 1">
<path d="M509.822 296.142L527.67 296.142C527.67 296.142 525.181 316.378 525.661 338.501C526.14 360.624 529.588 384.634 529.588 384.634L507.069 384.55C507.069 384.55 511.354 360.258 512.042 338.156C512.73 316.054 509.822 296.142 509.822 296.142Z" fill="#6b7e6b" fill-rule="nonzero" opacity="1" stroke="#170000" stroke-linecap="butt" stroke-linejoin="round" stroke-opacity="0" stroke-width="0.730614" vectornator:layerName="Rectangle 2"/>
<path d="M495.254 316.132C495.254 309.466 500.657 304.063 507.323 304.063C513.989 304.063 519.393 309.466 519.393 316.132C519.393 322.798 513.989 328.202 507.323 328.202C500.657 328.202 495.254 322.798 495.254 316.132Z" fill="#6b7e6b" fill-rule="nonzero" opacity="1" stroke="#170000" stroke-linecap="butt" stroke-linejoin="round" stroke-opacity="0" stroke-width="0.730614" vectornator:layerName="Oval 5"/>
<path d="M480.882 315.931C480.882 309.265 486.286 303.862 492.952 303.862C499.617 303.862 505.021 309.265 505.021 315.931C505.021 322.597 499.617 328.001 492.952 328.001C486.286 328.001 480.882 322.597 480.882 315.931Z" fill="#6b7e6b" fill-rule="nonzero" opacity="1" stroke="#170000" stroke-linecap="butt" stroke-linejoin="round" stroke-opacity="0" stroke-width="0.730614" vectornator:layerName="Oval 6"/>
<path d="M468.018 316.333C468.018 309.667 473.421 304.264 480.087 304.264C486.753 304.264 492.157 309.667 492.157 316.333C492.157 322.999 486.753 328.403 480.087 328.403C473.421 328.403 468.018 322.999 468.018 316.333Z" fill="#6b7e6b" fill-rule="nonzero" opacity="1" stroke="#170000" stroke-linecap="butt" stroke-linejoin="round" stroke-opacity="0" stroke-width="0.730614" vectornator:layerName="Oval 7"/>
<path d="M469.766 302.1C469.766 295.434 475.169 290.031 481.835 290.031C488.501 290.031 493.905 295.434 493.905 302.1C493.905 308.766 488.501 314.17 481.835 314.17C475.169 314.17 469.766 308.766 469.766 302.1Z" fill="#6b7e6b" fill-rule="nonzero" opacity="1" stroke="#170000" stroke-linecap="butt" stroke-linejoin="round" stroke-opacity="0" stroke-width="0.730614" vectornator:layerName="Oval 8"/>
<path d="M476.258 289.365C476.258 282.699 481.662 277.296 488.328 277.296C494.993 277.296 500.397 282.699 500.397 289.365C500.397 296.031 494.993 301.435 488.328 301.435C481.662 301.435 476.258 296.031 476.258 289.365Z" fill="#6b7e6b" fill-rule="nonzero" opacity="1" stroke="#170000" stroke-linecap="butt" stroke-linejoin="round" stroke-opacity="0" stroke-width="0.730614" vectornator:layerName="Oval 9"/>
<path d="M485.747 278.753C485.747 272.087 491.15 266.683 497.816 266.683C504.482 266.683 509.886 272.087 509.886 278.753C509.886 285.419 504.482 290.822 497.816 290.822C491.15 290.822 485.747 285.419 485.747 278.753Z" fill="#6b7e6b" fill-rule="nonzero" opacity="1" stroke="#170000" stroke-linecap="butt" stroke-linejoin="round" stroke-opacity="0" stroke-width="0.730614" vectornator:layerName="Oval 10"/>
<path d="M493.862 270.388C493.862 263.722 499.266 258.318 505.932 258.318C512.598 258.318 518.001 263.722 518.001 270.388C518.001 277.054 512.598 282.457 505.932 282.457C499.266 282.457 493.862 277.054 493.862 270.388Z" fill="#6b7e6b" fill-rule="nonzero" opacity="1" stroke="#170000" stroke-linecap="butt" stroke-linejoin="round" stroke-opacity="0" stroke-width="0.730614" vectornator:layerName="Oval 11"/>
<path d="M501.603 262.772C501.603 256.106 507.007 250.702 513.673 250.702C520.338 250.702 525.742 256.106 525.742 262.772C525.742 269.438 520.338 274.841 513.673 274.841C507.007 274.841 501.603 269.438 501.603 262.772Z" fill="#6b7e6b" fill-rule="nonzero" opacity="1" stroke="#170000" stroke-linecap="butt" stroke-linejoin="round" stroke-opacity="0" stroke-width="0.730614" vectornator:layerName="Oval 12"/>
<path d="M511.841 262.272C511.841 255.606 517.245 250.203 523.91 250.203C530.576 250.203 535.98 255.606 535.98 262.272C535.98 268.938 530.576 274.342 523.91 274.342C517.245 274.342 511.841 268.938 511.841 262.272Z" fill="#6b7e6b" fill-rule="nonzero" opacity="1" stroke="#170000" stroke-linecap="butt" stroke-linejoin="round" stroke-opacity="0" stroke-width="0.730614" vectornator:layerName="Oval 13"/>
<path d="M522.84 270.339C522.84 263.673 528.244 258.269 534.91 258.269C541.576 258.269 546.98 263.673 546.98 270.339C546.98 277.005 541.576 282.408 534.91 282.408C528.244 282.408 522.84 277.005 522.84 270.339Z" fill="#6b7e6b" fill-rule="nonzero" opacity="1" stroke="#170000" stroke-linecap="butt" stroke-linejoin="round" stroke-opacity="0" stroke-width="0.730614" vectornator:layerName="Oval 14"/>
<path d="M531.762 280.361C531.762 273.695 537.166 268.291 543.832 268.291C550.498 268.291 555.902 273.695 555.902 280.361C555.902 287.026 550.498 292.43 543.832 292.43C537.166 292.43 531.762 287.026 531.762 280.361Z" fill="#6b7e6b" fill-rule="nonzero" opacity="1" stroke="#170000" stroke-linecap="butt" stroke-linejoin="round" stroke-opacity="0" stroke-width="0.730614" vectornator:layerName="Oval 15"/>
<path d="M535.673 286.96C535.673 280.295 541.077 274.891 547.743 274.891C554.409 274.891 559.813 280.295 559.813 286.96C559.813 293.626 554.409 299.03 547.743 299.03C541.077 299.03 535.673 293.626 535.673 286.96Z" fill="#6b7e6b" fill-rule="nonzero" opacity="1" stroke="#170000" stroke-linecap="butt" stroke-linejoin="round" stroke-opacity="0" stroke-width="0.730614" vectornator:layerName="Oval 16"/>
<path d="M539.462 294.171C539.462 287.505 544.866 282.102 551.532 282.102C558.198 282.102 563.601 287.505 563.601 294.171C563.601 300.837 558.198 306.241 551.532 306.241C544.866 306.241 539.462 300.837 539.462 294.171Z" fill="#6b7e6b" fill-rule="nonzero" opacity="1" stroke="#170000" stroke-linecap="butt" stroke-linejoin="round" stroke-opacity="0" stroke-width="0.730614" vectornator:layerName="Oval 17"/>
<path d="M543.74 304.071C543.74 297.405 549.144 292.001 555.809 292.001C562.475 292.001 567.879 297.405 567.879 304.071C567.879 310.737 562.475 316.141 555.809 316.141C549.144 316.141 543.74 310.737 543.74 304.071Z" fill="#6b7e6b" fill-rule="nonzero" opacity="1" stroke="#170000" stroke-linecap="butt" stroke-linejoin="round" stroke-opacity="0" stroke-width="0.730614" vectornator:layerName="Oval 18"/>
<path d="M518.563 316.048C518.563 309.382 523.967 303.979 530.632 303.979C537.298 303.979 542.702 309.382 542.702 316.048C542.702 322.714 537.298 328.118 530.632 328.118C523.967 328.118 518.563 322.714 518.563 316.048Z" fill="#6b7e6b" fill-rule="nonzero" opacity="1" stroke="#170000" stroke-linecap="butt" stroke-linejoin="round" stroke-opacity="0" stroke-width="0.730614" vectornator:layerName="Oval 19"/>
<path d="M530.662 316.293C530.662 309.627 536.066 304.223 542.732 304.223C549.398 304.223 554.802 309.627 554.802 316.293C554.802 322.959 549.398 328.362 542.732 328.362C536.066 328.362 530.662 322.959 530.662 316.293Z" fill="#6b7e6b" fill-rule="nonzero" opacity="1" stroke="#170000" stroke-linecap="butt" stroke-linejoin="round" stroke-opacity="0" stroke-width="0.730614" vectornator:layerName="Oval 20"/>
<path d="M546.062 315.926C546.062 309.26 551.466 303.856 558.132 303.856C564.797 303.856 570.201 309.26 570.201 315.926C570.201 322.592 564.797 327.996 558.132 327.996C551.466 327.996 546.062 322.592 546.062 315.926Z" fill="#6b7e6b" fill-rule="nonzero" opacity="1" stroke="#170000" stroke-linecap="butt" stroke-linejoin="round" stroke-opacity="0" stroke-width="0.730614" vectornator:layerName="Oval 3"/>
<path d="M498.107 294.015C498.107 284.2 510.014 276.244 524.701 276.244C539.388 276.244 551.295 284.2 551.295 294.015C551.295 303.83 539.388 311.786 524.701 311.786C510.014 311.786 498.107 303.83 498.107 294.015Z" fill="#6b7e6b" fill-rule="nonzero" opacity="1" stroke="#170000" stroke-linecap="butt" stroke-linejoin="round" stroke-opacity="0" stroke-width="0.730614" vectornator:layerName="Oval 21"/>
<path d="M486.638 301.577C486.638 297.818 492.055 294.771 498.738 294.771C505.42 294.771 510.837 297.818 510.837 301.577C510.837 305.336 505.42 308.383 498.738 308.383C492.055 308.383 486.638 305.336 486.638 301.577Z" fill="#6b7e6b" fill-rule="nonzero" opacity="1" stroke="#170000" stroke-linecap="butt" stroke-linejoin="round" stroke-opacity="0" stroke-width="0.730614" vectornator:layerName="Oval 22"/>
<path d="M511.593 277.063C511.593 273.409 515.035 270.446 519.281 270.446C523.528 270.446 526.97 273.409 526.97 277.063C526.97 280.717 523.528 283.68 519.281 283.68C515.035 283.68 511.593 280.717 511.593 277.063Z" fill="#6b7e6b" fill-rule="nonzero" opacity="1" stroke="#170000" stroke-linecap="butt" stroke-linejoin="round" stroke-opacity="0" stroke-width="0.730614" vectornator:layerName="Oval 23"/>
</g>
<g opacity="1" vectornator:layerName="Group 2">
<path d="M489.029 357.281C489.029 355.242 490.681 353.59 492.719 353.59C494.758 353.59 496.41 355.242 496.41 357.281C496.41 358.897 495.371 360.27 493.925 360.77C493.843 360.798 494.477 360.981 495.304 361.244C496.745 361.704 502.824 354.086 503.155 354.569C503.599 355.217 499.76 361.777 497.587 363.52C497.099 363.911 496.036 369.445 495.973 370.43C495.943 370.894 497.628 383.77 496.871 384.527C496.114 385.283 492.945 373.456 492.945 373.456C492.945 373.456 486.898 384.254 486.187 384.018C485.866 383.911 490.148 370.944 490.124 370.621C489.941 368.191 488.801 364.851 487.851 363.867C485.85 361.796 480.149 357.789 480.945 357.195C482.007 356.402 489.214 361.643 489.67 361.438C490.222 361.19 491.668 360.823 491.521 360.772C490.071 360.275 489.029 358.899 489.029 357.281Z" fill="#6b7e6b" fill-rule="nonzero" opacity="1" stroke="#170000" stroke-linecap="butt" stroke-linejoin="round" stroke-opacity="0" stroke-width="0.730614" vectornator:layerName="Oval 1"/>
</g>
<path d="M456.958 344.008C456.958 341.002 459.394 338.566 462.4 338.566C465.405 338.566 467.842 341.002 467.842 344.008C467.842 346.035 466.733 347.803 465.09 348.74C464.876 348.861 466.711 350.329 467.526 350.678C468.114 350.93 484 355.36 482.055 358.119C481.386 359.069 470.459 354.471 469.126 355.492C467.502 356.736 468.054 363.058 468.445 365.856C468.617 367.082 475.305 383.736 474.774 383.707C471.562 383.53 463.753 369.628 463.667 369.628C463.486 369.628 457.514 384.575 456.43 383.963C456.027 383.736 457.791 365.752 457.859 365.177C458.208 362.197 459.964 356.344 459.24 355.169C458.716 354.32 443.785 345.997 443.817 345.183C443.875 343.693 452.219 347.624 456.785 349.128C458.511 349.697 459.813 348.797 459.753 348.764C458.086 347.834 456.958 346.053 456.958 344.008Z" fill="#6b7e6b" fill-rule="nonzero" opacity="1" stroke="#170000" stroke-linecap="butt" stroke-linejoin="round" stroke-opacity="0" stroke-width="0.730614" vectornator:layerName="Oval 1"/>
</g>
</svg>
